<svg width="1200" height="820" viewBox="0 0 1200 820" fill="none" xmlns="http://www.w3.org/2000/svg">
  <rect width="1200" height="820" rx="36" fill="#050816"/>
  <rect x="96" y="104" width="1008" height="612" rx="28" fill="#0F172A" stroke="#334155"/>
  <rect x="138" y="154" width="924" height="60" rx="18" fill="#111827"/>
  <circle cx="178" cy="184" r="9" fill="#FB7185"/>
  <circle cx="208" cy="184" r="9" fill="#FBBF24"/>
  <circle cx="238" cy="184" r="9" fill="#4ADE80"/>
  <rect x="148" y="260" width="394" height="400" rx="22" fill="#0B1020" stroke="#334155"/>
  <rect x="186" y="308" width="182" height="16" rx="8" fill="#CBD5E1"/>
  <rect x="186" y="338" width="280" height="12" rx="6" fill="#64748B"/>
  <rect x="186" y="362" width="246" height="12" rx="6" fill="#475569"/>
  <rect x="186" y="410" width="164" height="46" rx="14" fill="#22D3EE"/>
  <rect x="578" y="260" width="482" height="186" rx="22" fill="url(#paint0_linear)"/>
  <rect x="618" y="308" width="204" height="16" rx="8" fill="#F8FAFC"/>
  <rect x="618" y="338" width="300" height="12" rx="6" fill="#E2E8F0"/>
  <rect x="618" y="368" width="246" height="12" rx="6" fill="#E2E8F0"/>
  <rect x="578" y="474" width="482" height="186" rx="22" fill="#0B1020" stroke="#334155"/>
  <rect x="624" y="516" width="162" height="14" rx="7" fill="#94A3B8"/>
  <rect x="624" y="542" width="294" height="12" rx="6" fill="#475569"/>
  <rect x="624" y="582" width="392" height="28" rx="14" fill="#111827" stroke="#334155"/>
  <circle cx="1000" cy="324" r="68" fill="#FFFFFF" fill-opacity="0.18"/>
  <circle cx="1000" cy="324" r="28" fill="#FFFFFF"/>
  <path d="M998 300L1020 324L998 348" stroke="#0F172A" stroke-width="10" stroke-linecap="round" stroke-linejoin="round"/>
  <defs>
    <linearGradient id="paint0_linear" x1="578" y1="260" x2="1060" y2="446" gradientUnits="userSpaceOnUse">
      <stop stop-color="#0EA5E9"/>
      <stop offset="1" stop-color="#8B5CF6"/>
    </linearGradient>
  </defs>
</svg>
