<svg width="1200" height="820" viewBox="0 0 1200 820" fill="none" xmlns="http://www.w3.org/2000/svg">
  <rect width="1200" height="820" rx="36" fill="#070B18"/>
  <g opacity="0.34" stroke="#7DD3FC">
    <path d="M84 118H1116"/>
    <path d="M84 222H1116"/>
    <path d="M84 326H1116"/>
    <path d="M84 430H1116"/>
    <path d="M84 534H1116"/>
    <path d="M84 638H1116"/>
    <path d="M154 88V722"/>
    <path d="M302 88V722"/>
    <path d="M450 88V722"/>
    <path d="M598 88V722"/>
    <path d="M746 88V722"/>
    <path d="M894 88V722"/>
    <path d="M1042 88V722"/>
  </g>
  <g stroke="url(#paint0_linear)" stroke-width="3">
    <path d="M154 118L302 222L450 118L598 326L746 222L894 430L1042 326"/>
    <path d="M154 534L302 430L450 534L598 430L746 638L894 534L1042 638"/>
  </g>
  <g fill="white">
    <circle cx="154" cy="118" r="11"/>
    <circle cx="302" cy="222" r="11"/>
    <circle cx="450" cy="118" r="11"/>
    <circle cx="598" cy="326" r="11"/>
    <circle cx="746" cy="222" r="11"/>
    <circle cx="894" cy="430" r="11"/>
    <circle cx="1042" cy="326" r="11"/>
    <circle cx="154" cy="534" r="11"/>
    <circle cx="302" cy="430" r="11"/>
    <circle cx="450" cy="534" r="11"/>
    <circle cx="598" cy="430" r="11"/>
    <circle cx="746" cy="638" r="11"/>
    <circle cx="894" cy="534" r="11"/>
    <circle cx="1042" cy="638" r="11"/>
  </g>
  <circle cx="598" cy="326" r="74" fill="#22D3EE" fill-opacity="0.14"/>
  <circle cx="894" cy="430" r="86" fill="#8B5CF6" fill-opacity="0.14"/>
  <circle cx="746" cy="638" r="74" fill="#F472B6" fill-opacity="0.12"/>
  <defs>
    <linearGradient id="paint0_linear" x1="154" y1="118" x2="1042" y2="638" gradientUnits="userSpaceOnUse">
      <stop stop-color="#22D3EE"/>
      <stop offset="0.5" stop-color="#6366F1"/>
      <stop offset="1" stop-color="#EC4899"/>
    </linearGradient>
  </defs>
</svg>
