<svg width="1200" height="750" viewBox="0 0 1200 750" fill="none" xmlns="http://www.w3.org/2000/svg">
  <rect width="1200" height="750" fill="#0B1020"/>
  <rect x="68" y="74" width="1064" height="602" rx="20" fill="#111827" stroke="#334155"/>
  <rect x="88" y="98" width="1024" height="38" rx="10" fill="#1E293B"/>
  <circle cx="112" cy="117" r="6" fill="#F87171"/>
  <circle cx="132" cy="117" r="6" fill="#FBBF24"/>
  <circle cx="152" cy="117" r="6" fill="#34D399"/>
  <rect x="106" y="166" width="188" height="482" rx="12" fill="#0F172A" stroke="#334155"/>
  <rect x="126" y="194" width="120" height="12" rx="6" fill="#64748B"/>
  <rect x="126" y="220" width="148" height="12" rx="6" fill="#475569"/>
  <rect x="126" y="246" width="134" height="12" rx="6" fill="#475569"/>
  <rect x="320" y="166" width="772" height="198" rx="14" fill="url(#paint0_linear)"/>
  <rect x="348" y="198" width="264" height="14" rx="7" fill="#E2E8F0"/>
  <rect x="348" y="224" width="420" height="12" rx="6" fill="#CBD5E1"/>
  <rect x="348" y="250" width="380" height="12" rx="6" fill="#CBD5E1"/>
  <rect x="348" y="280" width="122" height="34" rx="10" fill="#F8FAFC"/>
  <rect x="320" y="386" width="370" height="262" rx="14" fill="#0F172A" stroke="#334155"/>
  <rect x="348" y="418" width="196" height="10" rx="5" fill="#64748B"/>
  <rect x="348" y="438" width="292" height="10" rx="5" fill="#475569"/>
  <rect x="348" y="470" width="144" height="148" rx="12" fill="#4F46E5"/>
  <rect x="708" y="386" width="384" height="262" rx="14" fill="#0F172A" stroke="#334155"/>
  <rect x="736" y="418" width="224" height="10" rx="5" fill="#64748B"/>
  <rect x="736" y="442" width="324" height="10" rx="5" fill="#475569"/>
  <rect x="736" y="476" width="156" height="26" rx="8" fill="#22D3EE"/>
  <defs>
    <linearGradient id="paint0_linear" x1="320" y1="166" x2="1092" y2="364" gradientUnits="userSpaceOnUse">
      <stop stop-color="#4F46E5"/>
      <stop offset="1" stop-color="#A855F7"/>
    </linearGradient>
  </defs>
</svg>
