<svg width="1200" height="750" viewBox="0 0 1200 750" fill="none" xmlns="http://www.w3.org/2000/svg">
  <rect width="1200" height="750" fill="#070B18"/>
  <rect x="76" y="72" width="1048" height="606" rx="20" fill="#0F172A" stroke="#334155"/>
  <rect x="96" y="96" width="1008" height="44" rx="12" fill="#1E293B"/>
  <rect x="120" y="111" width="108" height="14" rx="7" fill="#E2E8F0"/>
  <rect x="948" y="111" width="60" height="14" rx="7" fill="#64748B"/>
  <rect x="1018" y="111" width="60" height="14" rx="7" fill="#64748B"/>
  <rect x="116" y="170" width="968" height="236" rx="18" fill="url(#paint0_linear)"/>
  <rect x="156" y="214" width="326" height="16" rx="8" fill="#F8FAFC"/>
  <rect x="156" y="242" width="510" height="14" rx="7" fill="#CBD5E1"/>
  <rect x="156" y="268" width="452" height="14" rx="7" fill="#CBD5E1"/>
  <rect x="156" y="304" width="146" height="40" rx="10" fill="#F8FAFC"/>
  <rect x="116" y="430" width="312" height="214" rx="14" fill="#111827" stroke="#334155"/>
  <rect x="140" y="456" width="180" height="12" rx="6" fill="#64748B"/>
  <rect x="140" y="476" width="232" height="10" rx="5" fill="#475569"/>
  <rect x="140" y="500" width="260" height="10" rx="5" fill="#475569"/>
  <rect x="452" y="430" width="312" height="214" rx="14" fill="#111827" stroke="#334155"/>
  <rect x="476" y="456" width="180" height="12" rx="6" fill="#64748B"/>
  <rect x="476" y="476" width="232" height="10" rx="5" fill="#475569"/>
  <rect x="476" y="500" width="260" height="10" rx="5" fill="#475569"/>
  <rect x="788" y="430" width="296" height="214" rx="14" fill="#111827" stroke="#334155"/>
  <rect x="812" y="456" width="180" height="12" rx="6" fill="#64748B"/>
  <rect x="812" y="476" width="232" height="10" rx="5" fill="#475569"/>
  <rect x="812" y="500" width="260" height="10" rx="5" fill="#475569"/>
  <defs>
    <linearGradient id="paint0_linear" x1="116" y1="170" x2="1084" y2="406" gradientUnits="userSpaceOnUse">
      <stop stop-color="#0EA5E9"/>
      <stop offset="1" stop-color="#A855F7"/>
    </linearGradient>
  </defs>
</svg>
