<svg width="1200" height="820" viewBox="0 0 1200 820" fill="none" xmlns="http://www.w3.org/2000/svg">
  <rect width="1200" height="820" rx="36" fill="#060816"/>
  <g filter="url(#blur0)">
    <circle cx="264" cy="214" r="190" fill="#22D3EE" fill-opacity="0.42"/>
    <circle cx="870" cy="218" r="210" fill="#8B5CF6" fill-opacity="0.38"/>
    <circle cx="624" cy="592" r="238" fill="#EC4899" fill-opacity="0.34"/>
  </g>
  <path d="M78 642C250 506 416 500 554 566C681 626 826 620 1110 416" stroke="white" stroke-opacity="0.28" stroke-width="2"/>
  <path d="M84 514C244 410 380 394 542 432C706 470 846 452 1118 284" stroke="white" stroke-opacity="0.18" stroke-width="2"/>
  <path d="M98 320C254 250 394 242 542 284C704 330 872 320 1116 186" stroke="white" stroke-opacity="0.12" stroke-width="2"/>
  <g opacity="0.28" stroke="white">
    <path d="M0 126H1200"/>
    <path d="M0 254H1200"/>
    <path d="M0 382H1200"/>
    <path d="M0 510H1200"/>
    <path d="M0 638H1200"/>
    <path d="M130 0V820"/>
    <path d="M290 0V820"/>
    <path d="M450 0V820"/>
    <path d="M610 0V820"/>
    <path d="M770 0V820"/>
    <path d="M930 0V820"/>
    <path d="M1090 0V820"/>
  </g>
  <defs>
    <filter id="blur0" x="-66" y="-116" width="1266" height="1038" filterUnits="userSpaceOnUse" color-interpolation-filters="sRGB">
      <feFlood flood-opacity="0" result="BackgroundImageFix"/>
      <feBlend mode="normal" in="SourceGraphic" in2="BackgroundImageFix" result="shape"/>
      <feGaussianBlur stdDeviation="70" result="effect1_foregroundBlur"/>
    </filter>
  </defs>
</svg>
