<svg width="1600" height="1400" viewBox="0 0 1600 1400" fill="none" xmlns="http://www.w3.org/2000/svg">
  <rect width="1600" height="1400" fill="#030712"/>
  <g opacity="0.17" stroke="#60A5FA">
    <path d="M0 100H1600"/>
    <path d="M0 200H1600"/>
    <path d="M0 300H1600"/>
    <path d="M0 400H1600"/>
    <path d="M0 500H1600"/>
    <path d="M0 600H1600"/>
    <path d="M0 700H1600"/>
    <path d="M0 800H1600"/>
    <path d="M0 900H1600"/>
    <path d="M0 1000H1600"/>
    <path d="M0 1100H1600"/>
    <path d="M0 1200H1600"/>
    <path d="M0 1300H1600"/>
    <path d="M100 0V1400"/>
    <path d="M200 0V1400"/>
    <path d="M300 0V1400"/>
    <path d="M400 0V1400"/>
    <path d="M500 0V1400"/>
    <path d="M600 0V1400"/>
    <path d="M700 0V1400"/>
    <path d="M800 0V1400"/>
    <path d="M900 0V1400"/>
    <path d="M1000 0V1400"/>
    <path d="M1100 0V1400"/>
    <path d="M1200 0V1400"/>
    <path d="M1300 0V1400"/>
    <path d="M1400 0V1400"/>
    <path d="M1500 0V1400"/>
  </g>
</svg>
