<svg width="640" height="420" viewBox="0 0 640 420" fill="none" xmlns="http://www.w3.org/2000/svg">
  <rect x="30" y="44" width="580" height="330" rx="22" fill="#0F172A" stroke="#334155"/>
  <rect x="68" y="82" width="220" height="42" rx="12" fill="#1E293B"/>
  <rect x="82" y="95" width="132" height="14" rx="7" fill="#CBD5E1"/>
  <rect x="68" y="142" width="220" height="192" rx="14" fill="#111827" stroke="#334155"/>
  <rect x="88" y="168" width="124" height="10" rx="5" fill="#64748B"/>
  <rect x="88" y="188" width="180" height="10" rx="5" fill="#475569"/>
  <rect x="88" y="208" width="156" height="10" rx="5" fill="#475569"/>
  <rect x="88" y="234" width="82" height="28" rx="8" fill="#22D3EE"/>
  <rect x="328" y="82" width="250" height="92" rx="16" fill="#0B1024" stroke="#4F46E5"/>
  <rect x="350" y="106" width="142" height="10" rx="5" fill="#C7D2FE"/>
  <rect x="350" y="126" width="200" height="10" rx="5" fill="#818CF8"/>
  <rect x="328" y="192" width="250" height="142" rx="16" fill="#111827" stroke="#334155"/>
  <rect x="350" y="216" width="64" height="64" rx="12" fill="#A855F7"/>
  <rect x="426" y="216" width="64" height="64" rx="12" fill="#22D3EE"/>
  <rect x="502" y="216" width="52" height="64" rx="12" fill="#6366F1"/>
  <path d="M290 250H328" stroke="#94A3B8" stroke-width="3" stroke-dasharray="6 8"/>
  <circle cx="309" cy="250" r="10" fill="#E2E8F0"/>
  <circle cx="309" cy="250" r="5" fill="#0F172A"/>
</svg>
