<svg width="960" height="720" viewBox="0 0 960 720" fill="none" xmlns="http://www.w3.org/2000/svg">
  <rect width="960" height="720" rx="32" fill="#070B18"/>
  <rect x="48" y="64" width="864" height="592" rx="28" fill="#0F172A" stroke="#334155"/>
  <rect x="84" y="106" width="792" height="46" rx="14" fill="#111827"/>
  <circle cx="118" cy="129" r="7" fill="#FB7185"/>
  <circle cx="142" cy="129" r="7" fill="#FBBF24"/>
  <circle cx="166" cy="129" r="7" fill="#4ADE80"/>
  <rect x="102" y="188" width="332" height="396" rx="18" fill="#0B1020" stroke="#334155"/>
  <rect x="126" y="220" width="128" height="12" rx="6" fill="#64748B"/>
  <rect x="126" y="244" width="260" height="10" rx="5" fill="#475569"/>
  <rect x="126" y="264" width="226" height="10" rx="5" fill="#475569"/>
  <rect x="126" y="302" width="286" height="166" rx="16" fill="url(#paint0_linear)"/>
  <rect x="126" y="492" width="144" height="14" rx="7" fill="#94A3B8"/>
  <rect x="126" y="518" width="194" height="10" rx="5" fill="#475569"/>
  <rect x="462" y="188" width="378" height="186" rx="18" fill="#0B1020" stroke="#334155"/>
  <rect x="490" y="220" width="184" height="12" rx="6" fill="#64748B"/>
  <rect x="490" y="244" width="278" height="10" rx="5" fill="#475569"/>
  <rect x="490" y="278" width="86" height="84" rx="16" fill="#22D3EE"/>
  <rect x="592" y="278" width="104" height="84" rx="16" fill="#6366F1"/>
  <rect x="712" y="278" width="100" height="84" rx="16" fill="#A855F7"/>
  <rect x="462" y="398" width="378" height="186" rx="18" fill="#0B1020" stroke="#334155"/>
  <rect x="490" y="430" width="172" height="12" rx="6" fill="#64748B"/>
  <rect x="490" y="454" width="278" height="10" rx="5" fill="#475569"/>
  <rect x="490" y="490" width="320" height="62" rx="16" fill="#111827" stroke="#334155"/>
  <rect x="516" y="514" width="128" height="14" rx="7" fill="#CBD5E1"/>
  <rect x="658" y="514" width="126" height="14" rx="7" fill="#22D3EE"/>
  <defs>
    <linearGradient id="paint0_linear" x1="126" y1="302" x2="412" y2="468" gradientUnits="userSpaceOnUse">
      <stop stop-color="#0EA5E9"/>
      <stop offset="1" stop-color="#A855F7"/>
    </linearGradient>
  </defs>
</svg>
